<?xml version="1.0" standalone="no"?>
<!DOCTYPE svg PUBLIC "-//W3C//DTD SVG 20010904//EN"
 "http://www.w3.org/TR/2001/REC-SVG-20010904/DTD/svg10.dtd">
<svg version="1.0" xmlns="http://www.w3.org/2000/svg"
 width="300.000000pt" height="300.000000pt" viewBox="0 0 300.000000 300.000000"
 preserveAspectRatio="xMidYMid meet">
<metadata>
Created by potrace 1.11, written by Peter Selinger 2001-2013
</metadata>
<g transform="translate(0.000000,300.000000) scale(0.100000,-0.100000)"
fill="#000000" stroke="none">
<path d="M0 1500 l0 -1500 1500 0 1500 0 0 1500 0 1500 -1500 0 -1500 0 0
-1500z m1587 789 c336 -46 589 -252 682 -552 33 -107 47 -269 34 -384 -34
-301 -189 -517 -468 -653 -184 -89 -210 -93 -667 -98 l-398 -3 0 844 c0 464 3
847 7 850 11 12 725 8 810 -4z"/>
<path d="M1080 1446 l0 -576 113 0 c323 0 520 56 648 183 99 99 138 198 146
362 13 295 -108 488 -360 572 -78 25 -95 27 -314 31 l-233 4 0 -576z"/>
</g>
</svg>
